<svg height="223" width="694" xmlns="http://www.w3.org/2000/svg" xmlns:xlink="http://www.w3.org/1999/xlink"><defs><path id="a" d="m100-194c62-1 85 37 85 99 1 63-27 99-86 99s-83-39-84-99c0-66 28-99 85-99zm-1 174c44 1 53-31 53-75 0-43-8-75-51-75s-53 32-53 75 10 74 51 75"/><path id="b" d="m135-143c-3-34-86-38-87 0 15 53 115 12 119 90s-150 74-157 8l28-5c4 36 97 45 98 0-10-56-113-15-118-90-4-57 82-63 122-42 12 7 21 19 24 35"/><path id="c" d="m100-194c63 0 86 42 84 106h-135c0 40 14 67 53 68 26 1 43-12 49-29l28 8c-11 28-37 45-77 45-58 0-88-37-87-100 1-61 26-98 85-98zm52 81c6-60-76-77-97-28-3 7-6 17-6 28z"/><path id="d" d="m85-194c31 0 48 13 60 33l-1-100h32l1 261h-30c-2-10 0-23-3-31-10 23-28 35-59 35-53 0-69-39-70-98 0-66 23-100 70-100zm9 24c-40 0-46 34-46 75 0 40 6 74 45 74 42 0 51-32 51-76 0-42-9-74-50-73"/><path id="e" d="m141-36c-15 21-31 41-68 40-36-1-58-21-58-57-1-64 63-63 125-63 3-35-9-54-41-54-24 1-41 7-42 31l-33-3c5-37 33-52 76-52 45 0 72 20 72 64v82c-1 20 7 32 28 27v20c-31 9-61-2-59-35zm-93-17c0 20 12 33 32 33 41-3 63-29 60-74-43 2-92-5-92 41"/><path id="f" d="m24-231v-30h32v30zm0 231v-190h32v190z"/><path id="g" d="m84 4c-89 4-54-116-61-194h32v120c0 31 7 50 39 49 72-2 45-101 50-169h31l1 190h-30c-1-10 1-25-2-33-11 22-28 36-60 37"/><path id="h" d="m96-169c-40 0-48 33-48 73s9 75 48 75c24 0 41-14 43-38l32 2c-6 37-31 61-74 61-59 0-76-41-82-99-10-93 101-131 147-64 4 7 5 14 7 22l-32 3c-4-21-16-35-41-35"/></defs><g transform="translate(-292 -158)"><path d="m0 0h1360v1760h-1360z" fill="#fff"/><path d="m312 252c0-6.63 5.37-12 12-12h116c6.63 0 12 5.37 12 12v35c0 6.63-5.37 12-12 12h-116c-6.63 0-12-5.37-12-12z" fill="#c1e4f7" stroke="#000"/><g transform="translate(335.916667 273.5)"><path d="m190 0-132-211 1 211h-29v-248h39l133 213-2-213h31v248z" transform="scale(.05555556)"/><use transform="matrix(.05555556 0 0 .05555556 14.388889 0)" xlink:href="#a"/><path d="m59-47c-2 24 18 29 38 22v24c-33 10-70 5-70-39v-127h-22v-23h24l9-43h21v43h35v23h-35z" transform="matrix(.05555556 0 0 .05555556 25.5 0)"/></g><g transform="translate(372.527778 273.5)"><path d="m205 0-28-72h-113l-28 72h-35l101-248h38l99 248zm-38-99-47-123c-12 45-31 82-46 123z" transform="scale(.05555556)"/><use transform="matrix(.05555556 0 0 .05555556 13.333333 0)" xlink:href="#b"/><path d="m143 0-64-87-23 19v68h-32v-261h32v163l83-92h37l-77 82 82 108z" transform="matrix(.05555556 0 0 .05555556 23.333333 0)"/><use transform="matrix(.05555556 0 0 .05555556 33.333333 0)" xlink:href="#c"/><use transform="matrix(.05555556 0 0 .05555556 44.444444 0)" xlink:href="#d"/></g><path d="m538 252c0-6.63 5.37-12 12-12h116c6.63 0 12 5.37 12 12v35c0 6.63-5.37 12-12 12h-116c-6.63 0-12-5.37-12-12z" fill="#ffeca9" stroke="#000"/><g transform="translate(572.472222 273.5)"><path d="m30 0v-248h33v221h125v27z" transform="scale(.05555556)"/><use transform="matrix(.05555556 0 0 .05555556 11.111111 0)" xlink:href="#a"/><use transform="matrix(.05555556 0 0 .05555556 22.222222 0)" xlink:href="#e"/><use transform="matrix(.05555556 0 0 .05555556 33.333333 0)" xlink:href="#d"/><use transform="matrix(.05555556 0 0 .05555556 44.444444 0)" xlink:href="#f"/><path d="m117-194c89-4 53 116 60 194h-32v-121c0-31-8-49-39-48-72 2-44 102-49 169h-32l-1-190h30c1 10-1 24 2 32 11-22 29-35 61-36" transform="matrix(.05555556 0 0 .05555556 48.833333 0)"/><path d="m177-190c-10 125 41 293-110 261-23-6-38-20-44-43l32-5c15 47 100 32 89-28v-30c-11 21-29 36-61 36-54 0-68-41-68-96 0-56 16-97 71-98 29-1 48 16 59 35 1-10 0-23 2-32zm-83 168c36 0 50-32 50-73 0-42-14-75-50-75-39 0-46 34-46 75s6 73 46 73" transform="matrix(.05555556 0 0 .05555556 59.944444 0)"/></g><path d="m821 190c0-6.63 5.37-12 12-12h121c6.63 0 12 5.37 12 12v36c0 6.63-5.37 12-12 12h-121c-6.63 0-12-5.37-12-12z" fill="#c7e8ac" stroke="#000"/><g transform="translate(855.722222 212)"><path d="m185-189c-5-48-123-54-124 2 14 75 158 14 163 119 3 78-121 87-175 55-17-10-28-26-33-46l33-7c5 56 141 63 141-1 0-78-155-14-162-118-5-82 145-84 179-34 5 7 8 16 11 25" transform="scale(.05555556)"/><use transform="matrix(.05555556 0 0 .05555556 13.333333 0)" xlink:href="#g"/><use transform="matrix(.05555556 0 0 .05555556 24.444444 0)" xlink:href="#h"/><use transform="matrix(.05555556 0 0 .05555556 34.444444 0)" xlink:href="#h"/><use transform="matrix(.05555556 0 0 .05555556 44.444444 0)" xlink:href="#c"/><use transform="matrix(.05555556 0 0 .05555556 55.555556 0)" xlink:href="#b"/><use transform="matrix(.05555556 0 0 .05555556 65.555556 0)" xlink:href="#b"/></g><path d="m821 312c0-6.63 5.37-12 12-12h121c6.63 0 12 5.37 12 12v37c0 6.63-5.37 12-12 12h-121c-6.63 0-12-5.37-12-12z" fill="#ff8f80" stroke="#000"/><g transform="translate(863.055556 334.5)"><path d="m63-220v92h138v28h-138v100h-33v-248h175v28z" transform="scale(.05555556)"/><use transform="matrix(.05555556 0 0 .05555556 12.166667 0)" xlink:href="#e"/><use transform="matrix(.05555556 0 0 .05555556 23.277778 0)" xlink:href="#f"/><path d="m24 0v-261h32v261z" transform="matrix(.05555556 0 0 .05555556 27.666667 0)"/><use transform="matrix(.05555556 0 0 .05555556 32.055556 0)" xlink:href="#g"/><path d="m114-163c-78-16-53 91-57 163h-32l-1-190h30c1 12-1 29 2 39 6-27 23-49 58-41z" transform="matrix(.05555556 0 0 .05555556 43.166667 0)"/><use transform="matrix(.05555556 0 0 .05555556 49.777778 0)" xlink:href="#c"/></g><path d="m453 269.5h68.12" fill="none"/><path d="m453 269.5h4.54m4.54 0h9.08m4.55 0h9.1m4.53 0h9.08m4.55 0h9.08m4.55 0h4.54" fill="none" stroke="#000"/><path d="m453 270h-.5v-1h.5zm82.88-.5-14.26 4.64v-9.28z"/><path d="m537.5 269.5-16.38 5.32v-10.64zm-15.38 3.95 12.14-3.95-12.14-3.95z"/><path d="m679 269.5h70.5v-61.5h54.62" fill="none"/><path d="m679 269.5h5.18m5.2 0h10.36m5.18 0h10.37m5.17 0h10.37m5.18 0h10.37m3.1-2.07v-10.37m0-5.18v-10.38m0-5.18v-10.36m0-5.2v-10.35m2.78-2.4h10.37m5.18 0h10.37m5.18 0h10.37m5.18 0h5.2" fill="none" stroke="#000"/><path d="m679 270h-.5v-1h.5zm139.88-62-14.26 4.64v-9.28z"/><path d="m820.5 208-16.38 5.32v-10.64zm-15.38 3.95 12.14-3.95-12.14-3.95z"/><path d="m679 269.5h70.5v61h54.62" fill="none"/><path d="m679 269.5h5.17m5.17 0h10.34m5.17 0h10.34m5.16 0h10.34m5.17 0h10.34m3.3 1.88v10.34m0 5.17v10.33m0 5.17v10.34m0 5.17v10.35m2.92 2.25h10.34m5.17 0h10.34m5.17 0h10.34m5.17 0h5.17" fill="none" stroke="#000"/><path d="m679 270h-.5v-1h.5zm139.88 60.5-14.26 4.64v-9.28z"/><path d="m820.5 330.5-16.38 5.32v-10.64zm-15.38 3.95 12.14-3.95-12.14-3.95z"/></g></svg>